<svg xmlns="http://www.w3.org/2000/svg" width="500" height="500" viewBox="0 0 500 500"><g transform="translate(98.69683837890624,304.41095439642453)translate(151.30316162109375,35.5)rotate(0)translate(-151.30316162109375,-35.5)" opacity="1"><path transform="translate(6,54.48985328306147)rotate(0)" d="M36.39-5.41L36.39-4.35L36.39-4.35Q36.39-4.07 36.32-3.76L36.32-3.76L36.32-3.76Q36.26-3.44 36.03-3.24L36.03-3.24L36.03-3.24Q34.86-2.36 33.50-1.62L33.50-1.62L33.50-1.62Q32.14-0.88 30.56-0.34L30.56-0.34L30.56-0.34Q28.98 0.21 27.16 0.51L27.16 0.51L27.16 0.51Q25.33 0.80 23.23 0.80L23.23 0.80L23.23 0.80Q18.52 0.80 14.63-0.58L14.63-0.58L14.63-0.58Q10.75-1.97 7.96-4.51L7.96-4.51L7.96-4.51Q5.18-7.04 3.65-10.61L3.65-10.61L3.65-10.61Q2.12-14.17 2.12-18.52L2.12-18.52L2.12-18.52Q2.12-20.98 2.76-23.36L2.76-23.36L2.76-23.36Q3.39-25.74 4.61-27.89L4.61-27.89L4.61-27.89Q5.83-30.04 7.61-31.84L7.61-31.84L7.61-31.84Q9.40-33.64 11.69-34.96L11.69-34.96L11.69-34.96Q13.99-36.29 16.74-37.02L16.74-37.02L16.74-37.02Q19.50-37.76 22.71-37.76L22.71-37.76L22.71-37.76Q23.96-37.76 25.25-37.65L25.25-37.65L25.25-37.65Q26.55-37.53 27.82-37.31L27.82-37.31L27.82-37.31Q29.09-37.09 30.26-36.78L30.26-36.78L30.26-36.78Q31.44-36.47 32.50-36.08L32.50-36.08L34.27-31.29L34.06-31.18L34.06-31.18Q33.05-32.09 31.73-32.87L31.73-32.87L31.73-32.87Q30.41-33.64 28.90-34.21L28.90-34.21L28.90-34.21Q27.40-34.78 25.76-35.11L25.76-35.11L25.76-35.11Q24.11-35.43 22.43-35.43L22.43-35.43L22.43-35.43Q19.17-35.43 16.45-34.41L16.45-34.41L16.45-34.41Q13.73-33.38 11.77-31.44L11.77-31.44L11.77-31.44Q9.82-29.50 8.73-26.68L8.73-26.68L8.73-26.68Q7.64-23.85 7.64-20.25L7.64-20.25L7.64-20.25Q7.64-16.29 8.68-12.90L8.68-12.90L8.68-12.90Q9.71-9.51 11.76-7.02L11.76-7.02L11.76-7.02Q13.80-4.53 16.87-3.12L16.87-3.12L16.87-3.12Q19.94-1.71 24.04-1.71L24.04-1.71L24.04-1.71Q25.85-1.71 27.27-1.99L27.27-1.99L27.27-1.99Q28.70-2.28 29.68-2.71L29.68-2.71L29.68-2.71Q30.67-3.13 31.17-3.64L31.17-3.64L31.17-3.64Q31.68-4.14 31.68-4.56L31.68-4.56L31.68-5.57L31.68-5.57Q31.68-7.38 31.62-8.70L31.62-8.70L31.62-8.70Q31.57-10.02 31.47-10.99L31.47-10.99L31.47-10.99Q31.36-11.97 31.24-12.67L31.24-12.67L31.24-12.67Q31.11-13.36 30.92-13.96L30.92-13.96L30.92-14.06L37.14-14.06L37.14-13.96L37.14-13.96Q36.99-13.42 36.84-12.68L36.84-12.68L36.84-12.68Q36.70-11.94 36.60-10.93L36.60-10.93L36.60-10.93Q36.49-9.92 36.44-8.56L36.44-8.56L36.44-8.56Q36.39-7.20 36.39-5.41L36.39-5.41ZM43.07-37.14L43.07-37.14L43.07-37.14Q46.31-37.14 49.51-37.17L49.51-37.17L49.51-37.17Q52.71-37.19 55.37-37.23L55.37-37.23L55.37-37.23Q58.04-37.27 59.93-37.35L59.93-37.35L59.93-37.35Q61.82-37.43 62.50-37.55L62.50-37.55L61.23-34.11L61.23-34.11Q60.37-34.34 59.23-34.52L59.23-34.52L59.23-34.52Q58.25-34.68 56.84-34.82L56.84-34.82L56.84-34.82Q55.43-34.96 53.59-34.96L53.59-34.96L53.59-34.96Q52.97-34.96 52.10-34.93L52.10-34.93L52.10-34.93Q51.23-34.89 50.43-34.84L50.43-34.84L50.43-34.84Q49.49-34.78 48.54-34.73L48.54-34.73L48.54-20.59L48.54-20.59Q51.20-20.62 53.35-20.75L53.35-20.75L53.35-20.75Q55.50-20.88 57.01-21.00L57.01-21.00L57.01-21.00Q58.77-21.16 60.11-21.37L60.11-21.37L59.31-17.61L59.31-17.61Q57.52-17.85 55.66-18.05L55.66-18.05L55.66-18.05Q54.05-18.23 52.16-18.38L52.16-18.38L52.16-18.38Q50.27-18.52 48.54-18.52L48.54-18.52L48.54-2.28L48.54-2.28Q51.59-2.28 54.16-2.54L54.16-2.54L54.16-2.54Q56.72-2.80 58.64-3.13L58.64-3.13L58.64-3.13Q60.86-3.50 62.70-3.99L62.70-3.99L61.95 0.21L61.95 0.21Q61.64 0.18 61.02 0.16L61.02 0.16L61.02 0.16Q60.40 0.13 59.63 0.10L59.63 0.10L59.63 0.10Q58.87 0.08 58.03 0.06L58.03 0.06L58.03 0.06Q57.19 0.05 56.44 0.04L56.44 0.04L56.44 0.04Q55.68 0.03 55.10 0.01L55.10 0.01L55.10 0.01Q54.52 0 54.26 0L54.26 0L43.07 0L43.07-0.10L43.07-0.10Q43.23-0.65 43.37-1.45L43.37-1.45L43.37-1.45Q43.51-2.25 43.62-3.44L43.62-3.44L43.62-3.44Q43.72-4.64 43.77-6.28L43.77-6.28L43.77-6.28Q43.82-7.93 43.82-10.13L43.82-10.13L43.82-26.99L43.82-26.99Q43.82-29.19 43.77-30.83L43.77-30.83L43.77-30.83Q43.72-32.48 43.62-33.68L43.62-33.68L43.62-33.68Q43.51-34.89 43.37-35.69L43.37-35.69L43.37-35.69Q43.23-36.49 43.07-37.04L43.07-37.04L43.07-37.14ZM74.54-15.95L74.54-10.13L74.54-10.13Q74.54-7.93 74.60-6.28L74.60-6.28L74.60-6.28Q74.67-4.64 74.76-3.44L74.76-3.44L74.76-3.44Q74.85-2.25 74.99-1.45L74.99-1.45L74.99-1.45Q75.14-0.65 75.29-0.10L75.29-0.10L75.29 0L69.07 0L69.07-0.10L69.07-0.10Q69.23-0.65 69.37-1.45L69.37-1.45L69.37-1.45Q69.52-2.25 69.62-3.44L69.62-3.44L69.62-3.44Q69.72-4.64 69.77-6.28L69.77-6.28L69.77-6.28Q69.83-7.93 69.83-10.13L69.83-10.13L69.83-26.99L69.83-26.99Q69.83-29.19 69.77-30.83L69.77-30.83L69.77-30.83Q69.72-32.48 69.62-33.68L69.62-33.68L69.62-33.68Q69.52-34.89 69.37-35.69L69.37-35.69L69.37-35.69Q69.23-36.49 69.07-37.04L69.07-37.04L69.07-37.14L69.07-37.14Q69.59-37.09 70.16-37.04L70.16-37.04L70.16-37.04Q70.65-36.99 71.26-36.97L71.26-36.97L71.26-36.97Q71.87-36.96 72.52-36.96L72.52-36.96L72.52-36.96Q73.53-36.96 75.25-37.21L75.25-37.21L75.25-37.21Q76.97-37.45 79.64-37.45L79.64-37.45L79.64-37.45Q82.13-37.45 84.24-36.78L84.24-36.78L84.24-36.78Q86.35-36.10 87.90-34.81L87.90-34.81L87.90-34.81Q89.46-33.51 90.33-31.64L90.33-31.64L90.33-31.64Q91.19-29.76 91.19-27.38L91.19-27.38L91.19-27.38Q91.19-25.51 90.71-23.92L90.71-23.92L90.71-23.92Q90.24-22.33 89.37-21.03L89.37-21.03L89.37-21.03Q88.50-19.74 87.28-18.74L87.28-18.74L87.28-18.74Q86.07-17.74 84.56-17.07L84.56-17.07L93.65-4.30L93.65-4.30Q94.33-3.34 94.91-2.64L94.91-2.64L94.91-2.64Q95.49-1.94 96.02-1.45L96.02-1.45L96.02-1.45Q96.55-0.96 97.05-0.63L97.05-0.63L97.05-0.63Q97.54-0.31 98.06-0.10L98.06-0.10L98.06 0L90.57 0L90.57 0Q90.49-0.49 90.07-1.31L90.07-1.31L90.07-1.31Q89.64-2.12 89.07-2.93L89.07-2.93L79.90-15.85L79.90-15.85Q78.63-15.72 77.29-15.72L77.29-15.72L77.29-15.72Q75.94-15.72 74.54-15.95L74.54-15.95ZM74.54-35.12L74.54-17.97L74.54-17.97Q77.08-17.51 79.19-17.85L79.19-17.85L79.19-17.85Q81.30-18.18 82.81-19.32L82.81-19.32L82.81-19.32Q84.33-20.46 85.17-22.42L85.17-22.42L85.17-22.42Q86.01-24.37 86.01-27.17L86.01-27.17L86.01-27.17Q86.01-29.11 85.57-30.69L85.57-30.69L85.57-30.69Q85.13-32.27 84.27-33.37L84.27-33.37L84.27-33.37Q83.40-34.47 82.08-35.08L82.08-35.08L82.08-35.08Q80.76-35.69 78.99-35.69L78.99-35.69L78.99-35.69Q77.88-35.69 77.05-35.60L77.05-35.60L77.05-35.60Q76.22-35.51 75.65-35.41L75.65-35.41L75.65-35.41Q74.98-35.28 74.54-35.12L74.54-35.12ZM133.20 0L126.11 0L126.11-0.10L126.11-0.10Q126.16-0.23 126.18-0.49L126.18-0.49L126.18-0.49Q126.21-0.75 126.21-0.96L126.21-0.96L126.21-0.96Q126.21-1.76 125.99-2.73L125.99-2.73L125.99-2.73Q125.77-3.70 125.15-5.15L125.15-5.15L122.01-12.20L122.01-12.20Q120.56-12.25 118.16-12.25L118.16-12.25L118.16-12.25Q115.75-12.25 112.95-12.25L112.95-12.25L112.95-12.25Q110.90-12.25 109.00-12.25L109.00-12.25L109.00-12.25Q107.10-12.25 105.57-12.20L105.57-12.20L102.59-5.36L102.59-5.36Q102.20-4.40 101.76-3.26L101.76-3.26L101.76-3.26Q101.32-2.12 101.32-0.96L101.32-0.96L101.32-0.96Q101.32-0.62 101.37-0.40L101.37-0.40L101.37-0.40Q101.42-0.18 101.48-0.10L101.48-0.10L101.48 0L96.19 0L96.19-0.10L96.19-0.10Q96.66-0.60 97.36-1.85L97.36-1.85L97.36-1.85Q98.06-3.11 98.89-5.00L98.89-5.00L113.73-37.92L115.80-37.92L129.86-6.27L129.86-6.27Q130.35-5.15 130.88-4.11L130.88-4.11L130.88-4.11Q131.42-3.06 131.88-2.23L131.88-2.23L131.88-2.23Q132.35-1.40 132.71-0.83L132.71-0.83L132.71-0.83Q133.07-0.26 133.20-0.10L133.20-0.10L133.20 0ZM106.53-14.48L109.32-14.48L109.32-14.48Q110.83-14.48 112.41-14.49L112.41-14.49L112.41-14.49Q113.99-14.50 115.50-14.52L115.50-14.52L115.50-14.52Q117.02-14.53 118.41-14.54L118.41-14.54L118.41-14.54Q119.81-14.56 120.95-14.58L120.95-14.58L113.67-31.03L106.53-14.48ZM141.85-26.99L141.85-2.28L141.85-2.28Q144.91-2.28 147.47-2.54L147.47-2.54L147.47-2.54Q150.04-2.80 151.95-3.13L151.95-3.13L151.95-3.13Q154.18-3.50 156.02-3.99L156.02-3.99L155.27 0.21L155.27 0.21Q154.96 0.18 154.34 0.16L154.34 0.16L154.34 0.16Q153.72 0.13 152.95 0.10L152.95 0.10L152.95 0.10Q152.19 0.08 151.35 0.06L151.35 0.06L151.35 0.06Q150.50 0.05 149.75 0.04L149.75 0.04L149.75 0.04Q149.00 0.03 148.42 0.01L148.42 0.01L148.42 0.01Q147.84 0 147.58 0L147.58 0L136.39 0L136.39-0.10L136.39-0.10Q136.54-0.65 136.69-1.45L136.69-1.45L136.69-1.45Q136.83-2.25 136.93-3.44L136.93-3.44L136.93-3.44Q137.04-4.64 137.09-6.28L137.09-6.28L137.09-6.28Q137.14-7.93 137.14-10.13L137.14-10.13L137.14-26.99L137.14-26.99Q137.14-29.19 137.09-30.83L137.09-30.83L137.09-30.83Q137.04-32.48 136.93-33.68L136.93-33.68L136.93-33.68Q136.83-34.89 136.69-35.69L136.69-35.69L136.69-35.69Q136.54-36.49 136.39-37.04L136.39-37.04L136.39-37.14L142.60-37.14L142.60-37.04L142.60-37.04Q142.45-36.49 142.31-35.69L142.31-35.69L142.31-35.69Q142.16-34.89 142.07-33.68L142.07-33.68L142.07-33.68Q141.98-32.48 141.92-30.83L141.92-30.83L141.92-30.83Q141.85-29.19 141.85-26.99L141.85-26.99ZM166.46-34.91L166.46-34.91L166.46-34.91Q166.41-32.01 166.35-29.29L166.35-29.29L166.35-29.29Q166.33-28.13 166.32-26.91L166.32-26.91L166.32-26.91Q166.30-25.69 166.29-24.51L166.29-24.51L166.29-24.51Q166.28-23.34 166.26-22.26L166.26-22.26L166.26-22.26Q166.25-21.19 166.25-20.36L166.25-20.36L166.25-20.36Q166.25-18.62 166.28-16.16L166.28-16.16L166.28-16.16Q166.30-13.70 166.34-11.11L166.34-11.11L166.34-11.11Q166.38-8.52 166.46-6.14L166.46-6.14L166.46-6.14Q166.54-3.76 166.64-2.18L166.64-2.18L166.64-2.18Q167.00-2.12 167.61-2.06L167.61-2.06L167.61-2.06Q168.22-1.99 168.89-1.96L168.89-1.96L168.89-1.96Q169.57-1.92 170.21-1.89L170.21-1.89L170.21-1.89Q170.86-1.86 171.30-1.86L171.30-1.86L171.30-1.86Q173.11-1.86 175.02-2.11L175.02-2.11L175.02-2.11Q176.92-2.36 178.70-3.03L178.70-3.03L178.70-3.03Q180.47-3.70 182.04-4.88L182.04-4.88L182.04-4.88Q183.60-6.06 184.78-7.93L184.78-7.93L184.78-7.93Q185.96-9.79 186.63-12.42L186.63-12.42L186.63-12.42Q187.31-15.05 187.31-18.62L187.31-18.62L187.31-18.62Q187.31-22.58 186.35-25.68L186.35-25.68L186.35-25.68Q185.39-28.77 183.54-30.90L183.54-30.90L183.54-30.90Q181.69-33.02 178.96-34.12L178.96-34.12L178.96-34.12Q176.22-35.22 172.67-35.22L172.67-35.22L172.67-35.22Q171.98-35.22 171.09-35.18L171.09-35.18L171.09-35.18Q170.21-35.15 169.35-35.11L169.35-35.11L169.35-35.11Q168.48-35.07 167.71-35.00L167.71-35.00L167.71-35.00Q166.95-34.94 166.46-34.91ZM160.79-37.14L160.79-37.24L160.79-37.24Q161.38-37.22 161.90-37.19L161.90-37.19L161.90-37.19Q162.34-37.17 162.81-37.15L162.81-37.15L162.81-37.15Q163.27-37.14 163.56-37.14L163.56-37.14L163.56-37.14Q164.05-37.14 165.20-37.19L165.20-37.19L165.20-37.19Q166.35-37.24 167.83-37.30L167.83-37.30L167.83-37.30Q169.31-37.35 170.90-37.40L170.90-37.40L170.90-37.40Q172.49-37.45 173.89-37.45L173.89-37.45L173.89-37.45Q177.65-37.45 181.04-36.52L181.04-36.52L181.04-36.52Q184.43-35.59 187.00-33.46L187.00-33.46L187.00-33.46Q189.56-31.34 191.06-27.89L191.06-27.89L191.06-27.89Q192.57-24.45 192.57-19.42L192.57-19.42L192.57-19.42Q192.57-15.82 191.78-12.95L191.78-12.95L191.78-12.95Q190.99-10.08 189.56-7.87L189.56-7.87L189.56-7.87Q188.14-5.67 186.16-4.11L186.16-4.11L186.16-4.11Q184.17-2.54 181.78-1.53L181.78-1.53L181.78-1.53Q179.38-0.52 176.66-0.05L176.66-0.05L176.66-0.05Q173.94 0.41 171.04 0.41L171.04 0.41L171.04 0.41Q170.01 0.41 168.54 0.35L168.54 0.35L168.54 0.35Q167.08 0.28 165.60 0.21L165.60 0.21L165.60 0.21Q164.13 0.13 162.82 0.06L162.82 0.06L162.82 0.06Q161.51 0 160.79 0L160.79 0L160.79-0.10L160.79-0.10Q160.94-0.65 161.08-1.45L161.08-1.45L161.08-1.45Q161.23-2.25 161.33-3.44L161.33-3.44L161.33-3.44Q161.43-4.64 161.49-6.28L161.49-6.28L161.49-6.28Q161.54-7.93 161.54-10.13L161.54-10.13L161.54-26.99L161.54-26.99Q161.54-29.19 161.49-30.86L161.49-30.86L161.49-30.86Q161.43-32.53 161.33-33.73L161.33-33.73L161.33-33.73Q161.23-34.94 161.08-35.77L161.08-35.77L161.08-35.77Q160.94-36.60 160.79-37.14L160.79-37.14ZM214.58-11.84L197.07-11.84L197.07-15.54L214.58-15.54L214.58-11.84ZM237.35-37.76L237.35-37.76L237.35-37.76Q241.67-37.76 245.34-36.35L245.34-36.35L245.34-36.35Q249.00-34.94 251.67-32.39L251.67-32.39L251.67-32.39Q254.34-29.84 255.84-26.26L255.84-26.26L255.84-26.26Q257.34-22.69 257.34-18.36L257.34-18.36L257.34-18.36Q257.34-15.90 256.77-13.52L256.77-13.52L256.77-13.52Q256.20-11.14 255.10-9.01L255.10-9.01L255.10-9.01Q254.00-6.89 252.39-5.09L252.39-5.09L252.39-5.09Q250.79-3.29 248.73-1.98L248.73-1.98L248.73-1.98Q246.67-0.67 244.18 0.06L244.18 0.06L244.18 0.06Q241.70 0.80 238.82 0.80L238.82 0.80L238.82 0.80Q234.50 0.80 230.83-0.58L230.83-0.58L230.83-0.58Q227.17-1.97 224.50-4.51L224.50-4.51L224.50-4.51Q221.83-7.04 220.33-10.61L220.33-10.61L220.33-10.61Q218.83-14.17 218.83-18.52L218.83-18.52L218.83-18.52Q218.83-20.98 219.40-23.36L219.40-23.36L219.40-23.36Q219.97-25.74 221.07-27.89L221.07-27.89L221.07-27.89Q222.17-30.04 223.76-31.84L223.76-31.84L223.76-31.84Q225.35-33.64 227.41-34.96L227.41-34.96L227.41-34.96Q229.47-36.29 231.97-37.02L231.97-37.02L231.97-37.02Q234.47-37.76 237.35-37.76ZM238.82-1.53L238.82-1.53L238.82-1.53Q241.70-1.53 244.08-2.56L244.08-2.56L244.08-2.56Q246.46-3.60 248.19-5.57L248.19-5.57L248.19-5.57Q249.91-7.54 250.87-10.37L250.87-10.37L250.87-10.37Q251.82-13.21 251.82-16.81L251.82-16.81L251.82-16.81Q251.82-20.80 250.90-24.20L250.90-24.20L250.90-24.20Q249.99-27.61 248.17-30.11L248.17-30.11L248.17-30.11Q246.36-32.61 243.65-34.02L243.65-34.02L243.65-34.02Q240.95-35.43 237.35-35.43L237.35-35.43L237.35-35.43Q234.47-35.43 232.09-34.41L232.09-34.41L232.09-34.41Q229.71-33.38 227.98-31.44L227.98-31.44L227.98-31.44Q226.26-29.50 225.30-26.68L225.30-26.68L225.30-26.68Q224.34-23.85 224.34-20.25L224.34-20.25L224.34-20.25Q224.34-16.29 225.25-12.86L225.25-12.86L225.25-12.86Q226.16-9.43 227.97-6.92L227.97-6.92L227.97-6.92Q229.78-4.40 232.50-2.97L232.50-2.97L232.50-2.97Q235.22-1.53 238.82-1.53ZM272.93-10.13L272.93-34.86L272.93-34.86Q269.88-34.86 267.42-34.59L267.42-34.59L267.42-34.59Q264.96-34.32 263.17-34.01L263.17-34.01L263.17-34.01Q261.10-33.62 259.46-33.15L259.46-33.15L260.22-37.35L260.22-37.35Q260.53-37.32 261.15-37.30L261.15-37.30L261.15-37.30Q261.77-37.27 262.53-37.24L262.53-37.24L262.53-37.24Q263.30-37.22 264.14-37.21L264.14-37.21L264.14-37.21Q264.98-37.19 265.73-37.18L265.73-37.18L265.73-37.18Q266.48-37.17 267.07-37.15L267.07-37.15L267.07-37.15Q267.65-37.14 267.91-37.14L267.91-37.14L282.70-37.14L282.70-37.14Q282.96-37.14 283.54-37.15L283.54-37.15L283.54-37.15Q284.12-37.17 284.87-37.18L284.87-37.18L284.87-37.18Q285.62-37.19 286.47-37.21L286.47-37.21L286.47-37.21Q287.31-37.22 288.07-37.24L288.07-37.24L288.07-37.24Q288.84-37.27 289.46-37.30L289.46-37.30L289.46-37.30Q290.08-37.32 290.39-37.35L290.39-37.35L291.14-33.15L291.14-33.15Q289.48-33.62 287.41-34.01L287.41-34.01L287.41-34.01Q285.62-34.32 283.16-34.59L283.16-34.59L283.16-34.59Q280.70-34.86 277.65-34.86L277.65-34.86L277.65-10.13L277.65-10.13Q277.65-7.93 277.71-6.28L277.71-6.28L277.71-6.28Q277.78-4.64 277.87-3.44L277.87-3.44L277.87-3.44Q277.96-2.25 278.10-1.45L278.10-1.45L278.10-1.45Q278.24-0.65 278.40-0.10L278.40-0.10L278.40 0L272.21 0L272.21-0.10L272.21-0.10Q272.36-0.65 272.49-1.45L272.49-1.45L272.49-1.45Q272.62-2.25 272.73-3.44L272.73-3.44L272.73-3.44Q272.83-4.64 272.88-6.28L272.88-6.28L272.88-6.28Q272.93-7.93 272.93-10.13L272.93-10.13Z" fill="#000000"/></g><g transform="translate(156.79859924316406,385.41095439642453)translate(93.20140075683594,15.925000190734867)rotate(0)translate(-93.20140075683594,-15.925000190734867)" opacity="1"><path transform="translate(6,25.183644264220064)rotate(0)" d="M12.89-1.91L12.89-1.91Q13.45-0.50 14.47-0.46L14.47-0.46L14.47 0L14.47 0Q13.54-0.07 12.03-0.07L12.03-0.07L12.03-0.07Q10.08-0.07 9.12 0L9.12 0L9.12-0.46L9.12-0.46Q9.98-0.49 10.36-0.67L10.36-0.67L10.36-0.67Q10.73-0.84 10.73-1.30L10.73-1.30L10.73-1.30Q10.73-1.69 10.46-2.37L10.46-2.37L9.06-6.10L3.58-6.10L2.64-3.69L2.64-3.69Q2.19-2.53 2.19-1.82L2.19-1.82L2.19-1.82Q2.19-1.10 2.67-0.79L2.67-0.79L2.67-0.79Q3.15-0.48 4.16-0.46L4.16-0.46L4.16 0L4.16 0Q2.87-0.07 1.54-0.07L1.54-0.07L1.54-0.07Q0.52-0.07-0.16 0L-0.16 0L-0.16-0.46L-0.16-0.46Q0.98-0.71 1.63-2.43L1.63-2.43L6.99-16.22L7.35-16.22L12.89-1.91ZM8.90-6.55L6.35-13.34L3.74-6.55L8.90-6.55ZM33.19-15.65L33.19-15.65Q32.36-15.62 31.99-15.47L31.99-15.47L31.99-15.47Q31.62-15.33 31.48-14.94L31.48-14.94L31.48-14.94Q31.34-14.55 31.34-13.69L31.34-13.69L31.34-2.41L31.34-2.41Q31.34-1.55 31.48-1.17L31.48-1.17L31.48-1.17Q31.62-0.78 31.99-0.63L31.99-0.63L31.99-0.63Q32.36-0.49 33.19-0.46L33.19-0.46L33.19 0L33.19 0Q32.12-0.07 30.30-0.07L30.30-0.07L30.30-0.07Q28.34-0.07 27.39 0L27.39 0L27.39-0.46L27.39-0.46Q28.21-0.49 28.58-0.63L28.58-0.63L28.58-0.63Q28.94-0.78 29.08-1.17L29.08-1.17L29.08-1.17Q29.22-1.55 29.22-2.41L29.22-2.41L29.22-14.58L23.75 0.11L23.38 0.11L17.65-14.65L17.65-2.64L17.65-2.64Q17.65-1.77 17.80-1.32L17.80-1.32L17.80-1.32Q17.96-0.88 18.39-0.68L18.39-0.68L18.39-0.68Q18.81-0.49 19.71-0.46L19.71-0.46L19.71 0L19.71 0Q18.90-0.07 17.39-0.07L17.39-0.07L17.39-0.07Q16.04-0.07 15.28 0L15.28 0L15.28-0.46L15.28-0.46Q16.07-0.49 16.45-0.68L16.45-0.68L16.45-0.68Q16.84-0.88 16.98-1.32L16.98-1.32L16.98-1.32Q17.13-1.77 17.13-2.64L17.13-2.64L17.13-13.69L17.13-13.69Q17.13-14.55 16.99-14.94L16.99-14.94L16.99-14.94Q16.85-15.33 16.48-15.47L16.48-15.47L16.48-15.47Q16.10-15.62 15.28-15.65L15.28-15.65L15.28-16.10L15.28-16.10Q16.03-16.04 17.39-16.04L17.39-16.04L17.39-16.04Q18.59-16.04 19.34-16.10L19.34-16.10L24.33-2.91L29.22-16.04L30.30-16.04L30.30-16.04Q32.12-16.04 33.19-16.10L33.19-16.10L33.19-15.65ZM47.04-1.91L47.04-1.91Q47.59-0.50 48.61-0.46L48.61-0.46L48.61 0L48.61 0Q47.68-0.07 46.17-0.07L46.17-0.07L46.17-0.07Q44.23-0.07 43.26 0L43.26 0L43.26-0.46L43.26-0.46Q44.13-0.49 44.50-0.67L44.50-0.67L44.50-0.67Q44.87-0.84 44.87-1.30L44.87-1.30L44.87-1.30Q44.87-1.69 44.60-2.37L44.60-2.37L43.20-6.10L37.72-6.10L36.78-3.69L36.78-3.69Q36.33-2.53 36.33-1.82L36.33-1.82L36.33-1.82Q36.33-1.10 36.81-0.79L36.81-0.79L36.81-0.79Q37.30-0.48 38.31-0.46L38.31-0.46L38.31 0L38.31 0Q37.01-0.07 35.68-0.07L35.68-0.07L35.68-0.07Q34.66-0.07 33.99 0L33.99 0L33.99-0.46L33.99-0.46Q35.12-0.71 35.77-2.43L35.77-2.43L41.13-16.22L41.49-16.22L47.04-1.91ZM43.04-6.55L40.49-13.34L37.88-6.55L43.04-6.55ZM60.97-15.65L51.57-0.52L56.36-0.52L56.36-0.52Q57.79-0.52 58.52-0.92L58.52-0.92L58.52-0.92Q59.26-1.32 59.59-2.20L59.59-2.20L59.59-2.20Q59.92-3.08 60.10-4.78L60.10-4.78L60.62-4.78L60.62-4.78Q60.54-3.94 60.54-2.91L60.54-2.91L60.54-2.91Q60.54-1.73 60.71 0L60.71 0L60.71 0Q59.02-0.07 55.04-0.07L55.04-0.07L55.04-0.07Q51.16-0.07 49.42 0L49.42 0L49.42-0.46L58.91-15.58L54.13-15.58L54.13-15.58Q52.71-15.58 51.97-15.18L51.97-15.18L51.97-15.18Q51.23-14.78 50.91-13.91L50.91-13.91L50.91-13.91Q50.58-13.03 50.40-11.33L50.40-11.33L49.88-11.33L49.88-11.33Q49.95-12.05 49.95-13.19L49.95-13.19L49.95-13.19Q49.95-14.48 49.79-16.10L49.79-16.10L49.79-16.10Q51.47-16.04 55.45-16.04L55.45-16.04L55.45-16.04Q59.32-16.04 60.97-16.10L60.97-16.10L60.97-15.65ZM68.74-15.65L68.74-15.65Q67.92-15.62 67.54-15.47L67.54-15.47L67.54-15.47Q67.17-15.33 67.03-14.94L67.03-14.94L67.03-14.94Q66.89-14.55 66.89-13.69L66.89-13.69L66.89-2.41L66.89-2.41Q66.89-1.55 67.03-1.17L67.03-1.17L67.03-1.17Q67.17-0.78 67.54-0.63L67.54-0.63L67.54-0.63Q67.92-0.49 68.74-0.46L68.74-0.46L68.74 0L68.74 0Q67.69-0.07 65.85-0.07L65.85-0.07L65.85-0.07Q63.89-0.07 62.94 0L62.94 0L62.94-0.46L62.94-0.46Q63.76-0.49 64.13-0.63L64.13-0.63L64.13-0.63Q64.51-0.78 64.64-1.17L64.64-1.17L64.64-1.17Q64.78-1.55 64.78-2.41L64.78-2.41L64.78-13.69L64.78-13.69Q64.78-14.55 64.64-14.94L64.64-14.94L64.64-14.94Q64.51-15.33 64.13-15.47L64.13-15.47L64.13-15.47Q63.76-15.62 62.94-15.65L62.94-15.65L62.94-16.10L62.94-16.10Q63.88-16.04 65.85-16.04L65.85-16.04L65.85-16.04Q67.69-16.04 68.74-16.10L68.74-16.10L68.74-15.65ZM84.93-15.65L84.93-15.65Q84.14-15.62 83.76-15.42L83.76-15.42L83.76-15.42Q83.38-15.23 83.23-14.78L83.23-14.78L83.23-14.78Q83.09-14.34 83.09-13.46L83.09-13.46L83.09 0.11L82.56 0.11L73.01-14.65L73.01-2.64L73.01-2.64Q73.01-1.77 73.17-1.32L73.17-1.32L73.17-1.32Q73.32-0.88 73.75-0.68L73.75-0.68L73.75-0.68Q74.18-0.49 75.08-0.46L75.08-0.46L75.08 0L75.08 0Q74.27-0.07 72.76-0.07L72.76-0.07L72.76-0.07Q71.40-0.07 70.65 0L70.65 0L70.65-0.46L70.65-0.46Q71.44-0.49 71.82-0.68L71.82-0.68L71.82-0.68Q72.20-0.88 72.35-1.32L72.35-1.32L72.35-1.32Q72.49-1.77 72.49-2.64L72.49-2.64L72.49-13.69L72.49-13.69Q72.49-14.55 72.35-14.94L72.35-14.94L72.35-14.94Q72.21-15.33 71.84-15.47L71.84-15.47L71.84-15.47Q71.47-15.62 70.65-15.65L70.65-15.65L70.65-16.10L70.65-16.10Q71.39-16.04 72.76-16.04L72.76-16.04L72.76-16.04Q73.78-16.04 74.53-16.10L74.53-16.10L82.56-3.73L82.56-13.46L82.56-13.46Q82.56-14.34 82.41-14.78L82.41-14.78L82.41-14.78Q82.26-15.23 81.83-15.42L81.83-15.42L81.83-15.42Q81.40-15.62 80.50-15.65L80.50-15.65L80.50-16.10L80.50-16.10Q81.31-16.04 82.82-16.04L82.82-16.04L82.82-16.04Q84.17-16.04 84.93-16.10L84.93-16.10L84.93-15.65ZM99.36 0L99.36 0Q99.34-0.47 99.17-0.88L99.17-0.88L99.17-0.88Q99.00-1.30 98.74-1.30L98.74-1.30L98.74-1.30Q98.59-1.30 98.46-1.23L98.46-1.23L98.46-1.23Q98.32-1.16 97.99-0.91L97.99-0.91L97.99-0.91Q97.19-0.30 96.34 0.01L96.34 0.01L96.34 0.01Q95.49 0.32 94.44 0.32L94.44 0.32L94.44 0.32Q92.10 0.32 90.43-0.64L90.43-0.64L90.43-0.64Q88.75-1.61 87.87-3.43L87.87-3.43L87.87-3.43Q86.98-5.25 86.98-7.77L86.98-7.77L86.98-7.77Q86.98-10.38 87.92-12.34L87.92-12.34L87.92-12.34Q88.86-14.30 90.53-15.37L90.53-15.37L90.53-15.37Q92.19-16.43 94.30-16.43L94.30-16.43L94.30-16.43Q95.23-16.43 95.94-16.23L95.94-16.23L95.94-16.23Q96.66-16.04 97.19-15.74L97.19-15.74L97.19-15.74Q97.71-15.44 98.40-14.95L98.40-14.95L98.40-14.95Q98.69-14.72 98.86-14.72L98.86-14.72L98.86-14.72Q99.29-14.72 99.42-16.10L99.42-16.10L99.95-16.10L99.95-16.10Q99.86-14.63 99.86-10.87L99.86-10.87L99.34-10.87L99.34-10.87Q99.14-12.09 98.90-12.88L98.90-12.88L98.90-12.88Q98.67-13.66 98.19-14.24L98.19-14.24L98.19-14.24Q97.52-15.06 96.47-15.54L96.47-15.54L96.47-15.54Q95.41-16.02 94.26-16.02L94.26-16.02L94.26-16.02Q92.76-16.02 91.63-15.04L91.63-15.04L91.63-15.04Q90.49-14.06 89.87-12.26L89.87-12.26L89.87-12.26Q89.25-10.45 89.25-8.03L89.25-8.03L89.25-8.03Q89.25-5.30 89.83-3.55L89.83-3.55L89.83-3.55Q90.42-1.81 91.61-0.97L91.61-0.97L91.61-0.97Q92.80-0.13 94.67-0.13L94.67-0.13L94.67-0.13Q96.04-0.13 97.04-0.84L97.04-0.84L97.04-0.84Q97.45-1.12 97.57-1.38L97.57-1.38L97.57-1.38Q97.69-1.63 97.69-2.09L97.69-2.09L97.69-4.28L97.69-4.28Q97.69-5.22 97.51-5.66L97.51-5.66L97.51-5.66Q97.34-6.10 96.87-6.26L96.87-6.26L96.87-6.26Q96.40-6.42 95.39-6.46L95.39-6.46L95.39-6.92L95.39-6.92Q96.51-6.84 98.60-6.84L98.60-6.84L98.60-6.84Q100.20-6.84 100.97-6.92L100.97-6.92L100.97-6.46L100.97-6.46Q100.43-6.42 100.21-6.28L100.21-6.28L100.21-6.28Q99.98-6.14 99.90-5.76L99.90-5.76L99.90-5.76Q99.81-5.39 99.81-4.51L99.81-4.51L99.81 0L99.36 0ZM108.16-11.33L108.16-11.33Q108.23-12.05 108.23-13.19L108.23-13.19L108.23-13.19Q108.23-14.53 108.06-16.10L108.06-16.10L108.06-16.10Q109.95-16.04 114.48-16.04L114.48-16.04L114.48-16.04Q118.98-16.04 120.87-16.10L120.87-16.10L120.87-16.10Q120.71-14.48 120.71-13.19L120.71-13.19L120.71-13.19Q120.71-12.05 120.78-11.33L120.78-11.33L120.26-11.33L120.26-11.33Q120.08-13.09 119.81-13.94L119.81-13.94L119.81-13.94Q119.54-14.79 118.85-15.19L118.85-15.19L118.85-15.19Q118.17-15.58 116.76-15.58L116.76-15.58L115.53-15.58L115.53-2.64L115.53-2.64Q115.53-1.70 115.71-1.26L115.71-1.26L115.71-1.26Q115.88-0.82 116.35-0.66L116.35-0.66L116.35-0.66Q116.82-0.49 117.83-0.46L117.83-0.46L117.83 0L117.83 0Q116.63-0.07 114.48-0.07L114.48-0.07L114.48-0.07Q112.21-0.07 111.12 0L111.12 0L111.12-0.46L111.12-0.46Q112.13-0.49 112.60-0.66L112.60-0.66L112.60-0.66Q113.06-0.82 113.24-1.26L113.24-1.26L113.24-1.26Q113.42-1.70 113.42-2.64L113.42-2.64L113.42-15.58L112.19-15.58L112.19-15.58Q110.77-15.58 110.09-15.19L110.09-15.19L110.09-15.19Q109.41-14.79 109.14-13.94L109.14-13.94L109.14-13.94Q108.86-13.09 108.69-11.33L108.69-11.33L108.16-11.33ZM134.43-1.91L134.43-1.91Q134.99-0.50 136.01-0.46L136.01-0.46L136.01 0L136.01 0Q135.08-0.07 133.56-0.07L133.56-0.07L133.56-0.07Q131.62-0.07 130.65 0L130.65 0L130.65-0.46L130.65-0.46Q131.52-0.49 131.89-0.67L131.89-0.67L131.89-0.67Q132.27-0.84 132.27-1.30L132.27-1.30L132.27-1.30Q132.27-1.69 132.00-2.37L132.00-2.37L130.60-6.10L125.11-6.10L124.18-3.69L124.18-3.69Q123.72-2.53 123.72-1.82L123.72-1.82L123.72-1.82Q123.72-1.10 124.21-0.79L124.21-0.79L124.21-0.79Q124.69-0.48 125.70-0.46L125.70-0.46L125.70 0L125.70 0Q124.40-0.07 123.08-0.07L123.08-0.07L123.08-0.07Q122.06-0.07 121.38 0L121.38 0L121.38-0.46L121.38-0.46Q122.51-0.71 123.17-2.43L123.17-2.43L128.52-16.22L128.89-16.22L134.43-1.91ZM130.43-6.55L127.89-13.34L125.28-6.55L130.43-6.55ZM137.91-5.30L137.91-5.30Q138.06-2.99 139.04-1.56L139.04-1.56L139.04-1.56Q140.02-0.13 142.05-0.13L142.05-0.13L142.05-0.13Q142.83-0.13 143.50-0.46L143.50-0.46L143.50-0.46Q144.17-0.78 144.59-1.46L144.59-1.46L144.59-1.46Q145.00-2.14 145.00-3.17L145.00-3.17L145.00-3.17Q145.00-4.04 144.58-4.74L144.58-4.74L144.58-4.74Q144.15-5.43 143.42-6.01L143.42-6.01L143.42-6.01Q142.68-6.59 141.46-7.32L141.46-7.32L141.46-7.32Q140.11-8.13 139.28-8.77L139.28-8.77L139.28-8.77Q138.46-9.42 137.94-10.31L137.94-10.31L137.94-10.31Q137.41-11.21 137.41-12.42L137.41-12.42L137.41-12.42Q137.41-13.71 137.99-14.59L137.99-14.59L137.99-14.59Q138.57-15.48 139.55-15.92L139.55-15.92L139.55-15.92Q140.52-16.36 141.68-16.36L141.68-16.36L141.68-16.36Q142.38-16.36 142.89-16.24L142.89-16.24L142.89-16.24Q143.39-16.13 143.73-15.95L143.73-15.95L143.73-15.95Q144.06-15.78 144.46-15.52L144.46-15.52L144.46-15.52Q144.97-15.19 145.24-15.19L145.24-15.19L145.24-15.19Q145.45-15.19 145.56-15.43L145.56-15.43L145.56-15.43Q145.67-15.67 145.74-16.19L145.74-16.19L146.26-16.19L146.26-16.19Q146.15-14.86 146.15-11.55L146.15-11.55L145.63-11.55L145.63-11.55Q145.54-12.72 145.12-13.71L145.12-13.71L145.12-13.71Q144.70-14.69 143.90-15.31L143.90-15.31L143.90-15.31Q143.09-15.93 141.89-15.93L141.89-15.93L141.89-15.93Q141.09-15.93 140.46-15.59L140.46-15.59L140.46-15.59Q139.83-15.26 139.47-14.66L139.47-14.66L139.47-14.66Q139.12-14.06 139.12-13.28L139.12-13.28L139.12-13.28Q139.12-12.05 139.86-11.30L139.86-11.30L139.86-11.30Q140.61-10.54 141.60-9.93L141.60-9.93L141.60-9.93Q142.59-9.33 142.94-9.12L142.94-9.12L142.94-9.12Q144.37-8.22 145.20-7.56L145.20-7.56L145.20-7.56Q146.04-6.90 146.54-6.03L146.54-6.03L146.54-6.03Q147.04-5.15 147.04-4.00L147.04-4.00L147.04-4.00Q147.04-2.60 146.39-1.63L146.39-1.63L146.39-1.63Q145.75-0.66 144.65-0.17L144.65-0.17L144.65-0.17Q143.56 0.32 142.21 0.32L142.21 0.32L142.21 0.32Q141.12 0.32 140.42 0.09L140.42 0.09L140.42 0.09Q139.72-0.13 139.10-0.52L139.10-0.52L139.10-0.52Q138.58-0.84 138.32-0.84L138.32-0.84L138.32-0.84Q138.11-0.84 138.00-0.61L138.00-0.61L138.00-0.61Q137.89-0.37 137.82 0.16L137.82 0.16L137.30 0.16L137.30 0.16Q137.39-1.09 137.39-5.30L137.39-5.30L137.91-5.30ZM148.90-11.33L148.90-11.33Q148.97-12.05 148.97-13.19L148.97-13.19L148.97-13.19Q148.97-14.53 148.80-16.10L148.80-16.10L148.80-16.10Q150.69-16.04 155.22-16.04L155.22-16.04L155.22-16.04Q159.72-16.04 161.61-16.10L161.61-16.10L161.61-16.10Q161.45-14.48 161.45-13.19L161.45-13.19L161.45-13.19Q161.45-12.05 161.52-11.33L161.52-11.33L161.00-11.33L161.00-11.33Q160.82-13.09 160.55-13.94L160.55-13.94L160.55-13.94Q160.28-14.79 159.59-15.19L159.59-15.19L159.59-15.19Q158.91-15.58 157.50-15.58L157.50-15.58L156.27-15.58L156.27-2.64L156.27-2.64Q156.27-1.70 156.44-1.26L156.44-1.26L156.44-1.26Q156.62-0.82 157.09-0.66L157.09-0.66L157.09-0.66Q157.55-0.49 158.57-0.46L158.57-0.46L158.57 0L158.57 0Q157.37-0.07 155.22-0.07L155.22-0.07L155.22-0.07Q152.95-0.07 151.86 0L151.86 0L151.86-0.46L151.86-0.46Q152.87-0.49 153.33-0.66L153.33-0.66L153.33-0.66Q153.80-0.82 153.98-1.26L153.98-1.26L153.98-1.26Q154.16-1.70 154.16-2.64L154.16-2.64L154.16-15.58L152.92-15.58L152.92-15.58Q151.51-15.58 150.83-15.19L150.83-15.19L150.83-15.19Q150.15-14.79 149.87-13.94L149.87-13.94L149.87-13.94Q149.60-13.09 149.42-11.33L149.42-11.33L148.90-11.33ZM174.95-4.55L174.95-4.55Q174.88-3.94 174.88-2.91L174.88-2.91L174.88-2.91Q174.88-1.62 175.04 0L175.04 0L175.04 0Q173.49-0.07 169.83-0.07L169.83-0.07L169.83-0.07Q165.46-0.07 163.23 0L163.23 0L163.23-0.46L163.23-0.46Q164.05-0.49 164.42-0.63L164.42-0.63L164.42-0.63Q164.80-0.78 164.93-1.17L164.93-1.17L164.93-1.17Q165.07-1.55 165.07-2.41L165.07-2.41L165.07-13.69L165.07-13.69Q165.07-14.55 164.93-14.94L164.93-14.94L164.93-14.94Q164.80-15.33 164.42-15.47L164.42-15.47L164.42-15.47Q164.05-15.62 163.23-15.65L163.23-15.65L163.23-16.10L163.23-16.10Q165.46-16.04 169.83-16.04L169.83-16.04L169.83-16.04Q173.17-16.04 174.58-16.10L174.58-16.10L174.58-16.10Q174.42-14.62 174.42-13.42L174.42-13.42L174.42-13.42Q174.42-12.53 174.49-12.01L174.49-12.01L173.97-12.01L173.97-12.01Q173.80-13.48 173.55-14.20L173.55-14.20L173.55-14.20Q173.30-14.93 172.71-15.25L172.71-15.25L172.71-15.25Q172.11-15.58 170.92-15.58L170.92-15.58L169.03-15.58L169.03-15.58Q168.21-15.58 167.83-15.45L167.83-15.45L167.83-15.45Q167.46-15.32 167.32-14.93L167.32-14.93L167.32-14.93Q167.18-14.55 167.18-13.69L167.18-13.69L167.18-8.33L168.69-8.33L168.69-8.33Q169.84-8.33 170.22-9.01L170.22-9.01L170.22-9.01Q170.59-9.70 170.68-10.41L170.68-10.41L170.68-10.41Q170.77-11.12 170.80-11.33L170.80-11.33L171.33-11.33L171.33-11.33Q171.25-10.21 171.25-9.18L171.25-9.18L171.26-8.10L171.26-8.10Q171.26-6.94 171.39-4.86L171.39-4.86L170.87-4.86L170.87-4.86Q170.85-5.02 170.74-5.96L170.74-5.96L170.74-5.96Q170.64-6.91 170.13-7.39L170.13-7.39L170.13-7.39Q169.62-7.87 168.69-7.87L168.69-7.87L167.18-7.87L167.18-2.41L167.18-2.41Q167.18-1.55 167.32-1.17L167.32-1.17L167.32-1.17Q167.46-0.79 167.83-0.66L167.83-0.66L167.83-0.66Q168.21-0.52 169.03-0.52L169.03-0.52L170.69-0.52L170.69-0.52Q172.11-0.52 172.85-0.90L172.85-0.90L172.85-0.90Q173.59-1.28 173.92-2.11L173.92-2.11L173.92-2.11Q174.25-2.94 174.42-4.55L174.42-4.55L174.95-4.55Z" fill="#0c0d0e"/></g><g transform="translate(214.69812925170064,83.8553988408691)translate(35.30187074829931,100.27777777777771)rotate(0)translate(-35.30187074829931,-100.27777777777771) scale(1.0259487560899563,1.0259487560899563)" opacity="1"><defs class="defs"><linearGradient id="linearGradient0e6b1623d63b1e28d23061bb0fa01e55" class="linearGradient1" gradientTransform="translate(0.5,0.5) rotate(270) translate(-0.5,-0.5)" x1="50%" y1="0%" x2="50%" y2="100%"><stop id="stop1" offset="0%" class="linearGradientColor1" stop-color="#6d007e"/><stop id="stop2" offset="100%" class="linearGradientColor2" stop-color="#a3043b"/></linearGradient></defs><path fill="#EE4949" d="M24.645,193.44c-0.938-0.373-1.901-0.697-2.808-1.135c-0.757-0.367-1.654-0.748-1.578-1.805&#10;&#9;c0.066-0.924,0.898-1.227,1.616-1.496c1.676-0.627,3.375-1.191,5.064-1.779c1.25-0.436,2.496-0.881,3.751-1.299&#10;&#9;c4.253-1.424,5.927-4.334,6.08-8.842c0.425-12.457,0.388-24.914,0.321-37.373c-0.011-2.019-0.269-4.035-0.365-6.056&#10;&#9;c-0.111-2.306-1.884-3.81-3.104-6.153c2.76,0.531,4.767,2.188,7.455,1.934c-3.525,2.559-2.741,6.119-2.734,9.471&#10;&#9;c0.028,12.848,0.095,25.695-0.525,38.535c-0.095,1.967-0.544,3.846-1.026,5.73c-0.66,0.986-1.547,1.668-2.571,2.295&#10;&#9;c-2.469,1.512-5.462,1.756-7.863,3.404c-0.748,0.514-1.896,0.707-1.803,1.871c0.082,1.014,1.094,1.203,1.888,1.494&#10;&#9;c0.735,0.27,1.474,0.516,1.946,1.203C27.141,193.44,25.893,193.44,24.645,193.44z M43.071,195.006&#10;&#9;c0.791-0.959-0.043-0.941-0.643-1.068c-1.881-0.398-3.853-0.363-5.651-1.135c-0.617-0.266-1.378-0.535-1.379-1.379&#10;&#9;c-0.001-0.723,0.667-0.982,1.191-1.291c0.464-0.273,0.987-0.453,1.43-0.756c1.507-1.029,2.092-3.197,1.287-4.637&#10;&#9;c-0.66,0.986-1.548,1.668-2.571,2.295c-1.47,0.9-14.692,5.049-7.294,7.031c0.378,0.102,0.92,0.256,1.575,0.434&#10;&#9;C34.545,195.459,41.327,197.122,43.071,195.006z M22.854,53.921c-1.007,0.425-1.188,1.285-1.493,2.044&#10;&#9;c-2.062,5.146-3.696,10.435-5.081,15.794c-2.553,9.879-4.102,19.888-2.484,30.081c2.205,13.896,11.96,21.524,26.003,20.62&#10;&#9;c5.953-0.383,11.265-2.352,15.72-6.444c-4.231,5.308-9.865,7.677-16.477,8.101c-1.463,0.094-3.048-0.35-4.664,0.73&#10;&#9;c2.875,1.424,5.492,2.182,8.506,1.318c4.567-1.31,8.588-3.938,11.784-7.433c2.144-2.344,4.409-4.773,5.664-7.735&#10;&#9;c1.307-3.083,1.385-6.858,1.662-10.155c0.649-7.71,0.421-15.532-1.144-23.125c-1.682-8.159-4.385-16.067-7.081-23.949&#10;&#9;c6.642,14.324,11.35,30.044,10.297,45.984c1.326-5.538,0.97-11.033,0.22-16.522c-1.363-9.976-4.726-19.354-8.637-28.562&#10;&#9;c-0.393-0.926-0.721-1.957-1.666-2.479c-1.389-0.769-1.22-1.867-0.714-3.011c0.884-1.996,2.398-3.252,4.604-3.494&#10;&#9;c2.453-0.268,4.761,0.11,6.558,1.904c0.842,0.84,5.508,3.078,4.14-0.006c-1.762-3.971-8.67-3.555-12.146-3.946&#10;&#9;c-0.931-0.104-2.34,0.314-2.445-1.12c-0.094-1.259,1.138-1.732,2.162-2.149c0.983-0.399,1.97-0.415,2.948,0.046&#10;&#9;c0.633,0.298,1.259,0.637,1.998,0.567c0.867-0.082,1.873-0.134,1.996-1.211c0.133-1.16-0.726-1.57-1.763-1.738&#10;&#9;c-2.531-0.411-4.775,0.271-6.879,1.645c-1.031,0.673-2.099,1.606-3.417,0.839c-1.297-0.756-1.049-2.166-1.057-3.387&#10;&#9;c-0.048-7.265,5.416-12.804,8.874-18.685c0.697-1.186,1.843-2.648,1.68-4.106c-0.226-2.014-3.197-2.146-4.579-1.465&#10;&#9;c-1.567,0.772-2.612,2.45-3.399,3.939c-1.678,3.174-2.606,6.742-3.372,10.23c-1.163,5.292-1.195,10.778-0.286,16.11&#10;&#9;c0.248,1.455,0.782,2.872,0.924,4.332c0.203,2.092-0.832,2.872-2.862,2.399c-1.766-0.411-3.035-1.536-4.158-2.871&#10;&#9;c-1.962-2.333-3.974-4.609-6.632-6.199c-0.877-0.524-1.775-0.986-2.805-1.111c-0.567-0.069-1.13,0.011-1.439,0.548&#10;&#9;c-0.331,0.576-0.01,1.114,0.402,1.453c0.958,0.789,1.957,1.538,2.997,2.214c2.259,1.469,4.584,2.847,6.611,5.266&#10;&#9;c-5.003-0.082-9.655-0.135-14.049,1.684c3.858-0.635,7.753-0.42,11.619-0.663c3.242-0.204,5.273,1.065,6.804,3.764&#10;&#9;c5.967,10.523,8.89,21.741,7.556,33.849c-0.434,3.927-1.888,7.585-5.172,10.156c-3.584,2.805-7.742,2.975-12.021,2.47&#10;&#9;c-3.513-0.415-6.709-2.029-10.158-2.688c-3.939-0.751-4.404-0.313-3.525,3.487c0.503,2.176,1.084,4.334,1.689,6.736&#10;&#9;c-2.613-0.539-5.273-0.32-6.184-3.484c-0.245-0.854-0.146-2.457-1.387-2.27c-0.956,0.143-0.88,1.652-1.029,2.64&#10;&#9;c-0.022,0.152-0.056,0.303-0.084,0.454C11.931,87.368,17.538,70.677,22.854,53.921z M46.641,28.526&#10;&#9;c-0.186-1.594-1.392-2.146-2.337-0.502c-0.881,1.532-0.732,3.34-0.422,5.008c0.081,0.439,0.516,3.37,1.166,3.101&#10;&#9;c0.528-0.222,1.025-2.415,1.165-3.192c0.035-0.193,0.1-0.514,0.171-0.908C46.588,30.903,46.773,29.672,46.641,28.526z&#10;&#9; M65.309,30.082c0.787-0.103,1.875-0.334,1.772-1.463c-0.097-1.061-1.142-1.19-1.97-1.262c-2.618-0.225-7.655,3.45-8.314,6.23&#10;&#9;C59.199,31.173,62.184,30.491,65.309,30.082z M4.859,19.369c1.492-0.794,2.968-1.603,4.62-2.055&#10;&#9;c3.907-1.066,7.382-0.203,10.528,2.241c1.607,1.248,2.846,2.835,4.075,4.431c0.052,0.067,0.116,0.125,0.174,0.188&#10;&#9;c-0.121-0.625-0.459-1.14-0.759-1.671c-1.222-2.166-2.872-3.991-4.758-5.569c-1.942-1.627-4.222-2.598-6.78-2.819&#10;&#9;c-1.973-0.171-3.934-0.206-5.847,0.443c-1.508,0.511-2.991,1.075-4.304,2c-0.563,0.397-1.109,0.822-1.486,1.419&#10;&#9;c-0.327,0.518-0.45,1.07-0.159,1.631c0.289,0.557,0.784,0.801,1.414,0.811C2.792,20.438,3.834,19.914,4.859,19.369z M38.338,38.169&#10;&#9;c0.143,0.592-0.116,0.857-0.711,0.715c-0.747-0.18-1.381-0.593-1.95-1.084c-1.401-1.21-2.769-2.46-4.171-3.668&#10;&#9;c-1.308-1.126-2.679-2.153-4.371-2.667c-0.96-0.292-1.601-0.144-2.2,0.669c-0.502,0.68-0.762,1.453-0.82,2.296&#10;&#9;c-0.088,1.266,0.654,2.053,1.58,2.723c0.8,0.579,1.73,0.882,2.67,1.125c2.563,0.663,5.137,1.291,7.704,1.939&#10;&#9;c1.564,0.395,3.064,0.926,4.35,1.958c1.253,1.006,1.084,2.416-0.396,3.047c-0.426,0.182-0.871,0.256-1.333,0.266&#10;&#9;c-1.336,0.027-2.635-0.247-3.935-0.493c-2.578-0.488-5.145-0.493-7.706,0.105c-0.434,0.101-0.852,0.232-1.213,0.503&#10;&#9;c-0.385,0.288-0.396,0.68-0.03,0.999c0.337,0.292,0.732,0.373,1.157,0.283c0.633-0.135,1.267-0.272,1.892-0.438&#10;&#9;c2.592-0.689,5.173-0.489,7.723,0.176c3.217,0.839,6.154,2.237,8.846,4.089c4.194,2.408,9.027,5.921,12.471,10.66L44.496,43.379l0,0&#10;&#9;c-0.685-0.725-1.362-1.457-2.016-2.209c-2.831-3.262-5.237-6.811-6.791-10.869c-0.641-1.674-1.161-3.405-1.151-5.232&#10;&#9;c0.007-1.454,0.378-2.851,0.715-4.253c0.222-0.926,0.548-1.836,0.479-2.814c-0.114-1.607-1.548-2.415-2.936-1.611&#10;&#9;c-1.612,0.933-2.496,2.347-2.673,4.216c-0.34,3.603,0.934,6.725,2.824,9.675c1.492,2.329,3.176,4.522,4.774,6.776&#10;&#9;C37.969,37.405,38.236,37.745,38.338,38.169z M51.687,0.253c-0.414-0.369-0.834-0.272-1.276-0.102&#10;&#9;c-1.055,0.407-1.823,1.184-2.5,2.037c-3.228,4.063-5.582,8.565-6.749,13.648c-0.426,1.853-0.654,3.734-0.775,5.632&#10;&#9;c-0.277,4.347,0.231,8.603,1.422,12.784c0.063,0.221,0.115,0.448,0.333,0.614c-0.103-0.51-0.194-1.023-0.311-1.53&#10;&#9;c-0.707-3.083-1.094-6.199-0.93-9.366c0.231-4.453,1.394-8.638,3.661-12.495c1.355-2.304,2.953-4.417,4.864-6.298&#10;&#9;c0.782-0.77,1.6-1.523,2.174-2.482c0.197-0.329,0.376-0.659,0.499-1.027C52.293,1.086,52.131,0.649,51.687,0.253z" class="color c1"/></g></svg>